<svg version="1.1" id="Layer_1" xmlns="http://www.w3.org/2000/svg" xmlns:xlink="http://www.w3.org/1999/xlink" x="0px" y="0px" width="705" viewBox="282 368 705 574" enable-background="new 282 368 705 574" xml:space="preserve" height="574"><metadata><?xpacket begin="" id="W5M0MpCehiHzreSzNTczkc9d"?><x:xmpmeta xmlns:x="adobe:ns:meta/" x:xmptk="XMP Core 6.0.0"><rdf:RDF xmlns:rdf="http://www.w3.org/1999/02/22-rdf-syntax-ns#"><rdf:Description rdf:about="" xmlns:xmp="http://ns.adobe.com/xap/1.0/" xmlns:xmpMM="http://ns.adobe.com/xap/1.0/mm/" xmlns:dc="http://purl.org/dc/elements/1.1/" xmlns:dcterms="http://purl.org/dc/terms/" xmpMM:DocumentID="xmp.did:cb9f5498-bb58-4572-8043-8c369e6bfb9b" xmpMM:InstanceID="xmp.iid:cb9f5498-bb58-4572-8043-8c369e6bfb9b" dcterms:provenance="https://cai-manifests.adobe.com/manifests/urn-c2pa-3fec0346-98a1-410a-b841-941d17c7415b-adobe"> </rdf:Description></rdf:RDF></x:xmpmeta>
<?xpacket end="w"?></metadata>
<path fill="#FDFCFC" opacity="1.000000" stroke="none" d="
M553.000000,1255.000000 
	C368.666656,1255.000000 184.833328,1255.000000 1.000000,1255.000000 
	C1.000000,837.000000 1.000000,419.000000 1.000000,1.000000 
	C419.000000,1.000000 837.000000,1.000000 1255.000000,1.000000 
	C1255.000000,419.000000 1255.000000,837.000000 1255.000000,1255.000000 
	C1021.166687,1255.000000 787.333313,1255.000000 553.000000,1255.000000 
M425.169556,865.648804 
	C436.176605,858.770386 447.403442,852.210266 458.072845,844.842834 
	C461.863037,842.225647 465.469238,838.089417 467.072235,833.856201 
	C469.370697,827.786438 470.594269,821.021301 470.820709,814.502502 
	C472.174164,775.541931 473.107330,736.566711 474.189484,697.596680 
	C474.273590,694.566467 474.299255,692.092041 478.481628,691.073364 
	C505.878235,684.400391 532.495422,675.304443 558.327393,664.005066 
	C594.669006,648.108643 628.953430,628.816589 658.914551,602.448486 
	C662.073608,599.668274 663.347961,597.622742 661.446960,592.955566 
	C652.015259,569.799805 659.427002,543.513977 678.715942,528.766235 
	C687.359802,522.157471 697.563477,519.788940 707.798584,517.415222 
	C722.889099,513.915466 722.943420,513.946045 723.019043,498.106140 
	C723.194824,461.263123 706.361023,433.971924 675.387390,415.203339 
	C649.096191,399.272156 619.720093,394.710052 589.573364,394.029053 
	C553.910400,393.223389 519.332214,399.771301 485.321289,409.966370 
	C422.401001,428.827240 366.878113,460.282288 320.777832,507.402710 
	C312.102448,516.270142 304.321381,526.244141 297.466705,536.594360 
	C290.958832,546.420959 293.309509,561.288879 301.279114,570.129944 
	C309.296387,579.023926 318.831329,577.034973 328.465912,573.396790 
	C329.089050,573.161499 329.736908,572.985107 330.344666,572.716614 
	C359.888947,559.666260 389.429443,546.607300 418.973724,533.556946 
	C420.246643,532.994690 421.551422,532.504578 423.530823,531.700867 
	C422.934814,534.056396 422.586426,535.632385 422.137268,537.179138 
	C408.537140,584.013672 394.479370,630.721069 381.443176,677.711914 
	C368.091705,725.839417 354.846802,774.102661 350.694885,824.130859 
	C349.408508,839.630798 349.831696,855.415588 351.103149,870.936462 
	C352.010986,882.018494 361.142029,887.738281 372.278931,886.623413 
	C374.587189,886.392395 377.016113,886.159424 379.119324,885.280884 
	C394.290894,878.943115 409.392883,872.438904 425.169556,865.648804 
M778.084351,425.358765 
	C755.323853,429.744720 746.810791,439.956787 746.715332,462.949371 
	C746.633667,482.604797 746.459473,502.260345 746.504395,521.915405 
	C746.512146,525.325073 745.629028,526.794678 742.036255,527.522827 
	C729.473083,530.069275 717.102478,533.673096 704.475525,535.774170 
	C680.437988,539.773926 672.604309,561.491333 675.301514,578.665344 
	C678.271851,597.578796 689.161621,605.443298 708.258118,602.952820 
	C709.908203,602.737671 711.557983,602.515991 713.201599,602.257385 
	C723.990295,600.559509 734.777344,598.850769 746.055969,597.067932 
	C746.055969,612.744751 746.031433,627.877197 746.063782,643.009521 
	C746.089478,655.038025 752.595093,664.626770 763.822632,668.836060 
	C772.300842,672.014587 781.070862,672.394531 789.870300,670.380798 
	C807.410522,666.366760 815.670166,656.008484 815.708435,638.196777 
	C815.724548,630.700684 815.707214,623.204529 815.706604,615.708374 
	C815.705750,605.910095 815.706360,596.111816 815.706360,586.007019 
	C832.070496,583.221985 847.944458,580.401123 863.863037,577.859924 
	C872.175049,576.533020 879.629944,573.667175 885.494934,567.472961 
	C898.180054,554.075928 901.249573,531.699219 892.736145,515.323059 
	C886.788208,503.881744 877.034607,498.930359 864.202942,501.046112 
	C857.797852,502.102203 851.438416,503.439392 845.064880,504.682648 
	C835.811157,506.487732 826.563232,508.322906 816.607422,510.284210 
	C816.607422,507.607361 816.602173,505.646271 816.608276,503.685272 
	C816.659119,487.360626 816.823975,471.035309 816.724243,454.711578 
	C816.659424,444.109863 812.120239,435.794006 802.990906,430.174805 
	C795.592102,425.620728 787.486694,424.411407 778.084351,425.358765 
M622.529785,847.950439 
	C637.876587,865.125671 657.698242,868.970337 679.095825,865.394531 
	C708.354614,860.505005 731.424438,844.646545 749.661682,821.702637 
	C761.686218,806.574829 770.280273,789.723694 771.106018,769.936340 
	C771.777832,753.836731 762.801025,745.396362 746.725464,746.566589 
	C727.892395,747.937683 710.157410,753.620850 692.852234,760.803406 
	C687.519470,763.016724 683.899902,767.047546 681.863770,772.473206 
	C677.850525,783.167542 684.894043,792.894714 696.269897,792.011047 
	C699.871460,791.731384 703.416748,790.513428 706.946350,789.569763 
	C712.995605,787.952515 719.012207,786.213196 725.397278,784.425842 
	C725.243225,785.650635 725.308655,786.175049 725.109558,786.564026 
	C714.689819,806.918091 699.100647,821.227051 676.282288,825.717102 
	C661.027954,828.718628 650.053406,819.386169 650.688660,803.744568 
	C651.051453,794.811462 653.237976,785.499268 656.697754,777.234619 
	C665.250366,756.804443 679.271545,740.756653 699.530701,730.987915 
	C707.870544,726.966553 716.378723,725.280151 725.125916,731.162170 
	C729.627380,734.189209 735.118896,733.423401 739.963318,730.818787 
	C747.216370,726.919312 750.787231,720.615784 751.028992,712.507935 
	C751.278564,704.136353 747.118103,698.138245 739.957581,694.337280 
	C725.863708,686.855896 710.843933,686.394836 696.300293,691.655396 
	C651.226868,707.958557 623.333435,740.553772 611.054077,786.264404 
	C605.260010,807.833130 607.632080,828.970764 622.529785,847.950439 
M926.893127,758.391907 
	C928.002319,749.839539 930.177063,741.267517 930.019226,732.738586 
	C929.562195,708.031616 918.013428,689.349426 895.465332,679.238037 
	C872.061157,668.742615 848.984558,671.186035 827.658630,685.891541 
	C824.720215,687.917847 822.651306,691.159790 819.881348,693.482971 
	C792.928284,716.089539 778.329224,744.419067 781.041870,780.080566 
	C782.908325,804.617371 799.880981,823.491638 823.265686,828.560181 
	C836.060181,831.333313 848.900146,830.794678 861.227539,826.455444 
	C894.093140,814.886658 915.400940,791.848816 926.893127,758.391907 
M909.645935,823.131531 
	C899.911804,824.420593 890.149841,825.529358 880.448303,827.028992 
	C830.595032,834.735718 782.036194,847.378479 735.125793,866.004028 
	C705.663513,877.702026 677.242981,891.542969 651.041260,909.559265 
	C647.528992,911.974365 644.116882,914.936829 641.626709,918.351929 
	C636.635925,925.196411 640.622559,933.048157 649.052185,933.013367 
	C653.622375,932.994568 658.416748,932.250732 662.705261,930.708496 
	C671.150879,927.671265 679.370056,923.974731 687.583130,920.326233 
	C704.925415,912.622192 721.954285,904.150391 739.557251,897.107300 
	C783.221741,879.636902 828.992004,869.961609 875.153931,861.981079 
	C893.190369,858.862915 911.310547,856.220703 929.322388,852.972595 
	C939.368896,851.160950 947.585754,845.861023 953.512146,837.436890 
	C955.967407,833.946899 958.197815,829.478760 955.243652,825.911621 
	C953.143188,823.375366 948.895264,822.428467 945.436462,821.284119 
	C943.638855,820.689453 941.468689,821.113159 939.476257,821.233093 
	C929.834900,821.813293 920.196777,822.446472 909.645935,823.131531 
M925.687317,427.193909 
	C916.209717,435.834869 906.592102,444.328735 897.307434,453.172211 
	C891.803345,458.414734 891.652161,466.358978 896.321472,471.655121 
	C900.957214,476.913239 908.245972,477.710480 914.316711,473.013977 
	C927.881592,462.519836 941.351257,451.895142 954.635376,441.048920 
	C961.162292,435.719849 962.041626,427.041809 957.338440,420.923889 
	C952.502625,414.633240 944.451294,413.382385 937.263550,418.159180 
	C933.393860,420.730927 929.893188,423.857910 925.687317,427.193909 
M881.235962,378.892242 
	C872.691956,376.534210 866.499329,378.868835 863.224426,386.875824 
	C857.874023,399.957031 852.886292,413.205780 848.308960,426.576752 
	C845.529663,434.695312 849.101746,441.680786 856.172241,444.102997 
	C862.917908,446.413910 869.761719,443.085052 873.010376,435.444427 
	C878.285095,423.038422 883.399658,410.561127 888.365906,398.028351 
	C891.489075,390.146454 889.165161,383.792206 881.235962,378.892242 
M959.861572,517.316467 
	C962.295959,516.764160 964.786682,516.387329 967.154114,515.626587 
	C974.076477,513.402283 978.071045,506.670013 976.547668,500.062439 
	C974.967346,493.207611 968.895325,489.330963 961.222778,490.851288 
	C951.269165,492.823608 941.361023,495.061554 931.505371,497.479126 
	C924.140320,499.285736 919.961914,505.714630 921.337341,512.368164 
	C922.684448,518.884705 928.002502,522.254395 935.850769,521.178772 
	C943.599915,520.116699 951.304871,518.732483 959.861572,517.316467 
z"></path>
<path fill="#1D60CA" opacity="1.000000" stroke="none" d="
M424.843262,865.818115 
	C409.392883,872.438904 394.290894,878.943115 379.119324,885.280884 
	C377.016113,886.159424 374.587189,886.392395 372.278931,886.623413 
	C361.142029,887.738281 352.010986,882.018494 351.103149,870.936462 
	C349.831696,855.415588 349.408508,839.630798 350.694885,824.130859 
	C354.846802,774.102661 368.091705,725.839417 381.443176,677.711914 
	C394.479370,630.721069 408.537140,584.013672 422.137268,537.179138 
	C422.586426,535.632385 422.934814,534.056396 423.530823,531.700867 
	C421.551422,532.504578 420.246643,532.994690 418.973724,533.556946 
	C389.429443,546.607300 359.888947,559.666260 330.344666,572.716614 
	C329.736908,572.985107 329.089050,573.161499 328.465912,573.396790 
	C318.831329,577.034973 309.296387,579.023926 301.279114,570.129944 
	C293.309509,561.288879 290.958832,546.420959 297.466705,536.594360 
	C304.321381,526.244141 312.102448,516.270142 320.777832,507.402710 
	C366.878113,460.282288 422.401001,428.827240 485.321289,409.966370 
	C519.332214,399.771301 553.910400,393.223389 589.573364,394.029053 
	C619.720093,394.710052 649.096191,399.272156 675.387390,415.203339 
	C706.361023,433.971924 723.194824,461.263123 723.019043,498.106140 
	C722.943420,513.946045 722.889099,513.915466 707.798584,517.415222 
	C697.563477,519.788940 687.359802,522.157471 678.715942,528.766235 
	C659.427002,543.513977 652.015259,569.799805 661.446960,592.955566 
	C663.347961,597.622742 662.073608,599.668274 658.914551,602.448486 
	C628.953430,628.816589 594.669006,648.108643 558.327393,664.005066 
	C532.495422,675.304443 505.878235,684.400391 478.481628,691.073364 
	C474.299255,692.092041 474.273590,694.566467 474.189484,697.596680 
	C473.107330,736.566711 472.174164,775.541931 470.820709,814.502502 
	C470.594269,821.021301 469.370697,827.786438 467.072235,833.856201 
	C465.469238,838.089417 461.863037,842.225647 458.072845,844.842834 
	C447.403442,852.210266 436.176605,858.770386 424.843262,865.818115 
M561.509521,568.995728 
	C571.409180,561.947754 581.615845,555.287476 591.130798,547.753662 
	C603.060669,538.307861 613.902771,527.679688 620.611084,513.637085 
	C628.494324,497.135040 623.108887,482.654846 606.362061,475.573578 
	C594.911743,470.731903 582.815613,469.918823 570.565186,470.512451 
	C550.354126,471.491760 531.159119,476.868378 512.573303,484.473846 
	C502.549927,488.575470 492.825714,493.408203 482.256592,498.235321 
	C494.573975,504.146362 498.048676,510.178070 496.270752,522.743103 
	C493.565338,541.863159 490.436768,560.923035 487.606171,580.026001 
	C486.179199,589.656067 485.012329,599.324585 483.588348,610.024292 
	C510.923218,597.763794 536.510559,584.731018 561.509521,568.995728 
z"></path>
<path fill="#4AA55E" opacity="1.000000" stroke="none" d="
M778.528442,425.295715 
	C787.486694,424.411407 795.592102,425.620728 802.990906,430.174805 
	C812.120239,435.794006 816.659424,444.109863 816.724243,454.711578 
	C816.823975,471.035309 816.659119,487.360626 816.608276,503.685272 
	C816.602173,505.646271 816.607422,507.607361 816.607422,510.284210 
	C826.563232,508.322906 835.811157,506.487732 845.064880,504.682648 
	C851.438416,503.439392 857.797852,502.102203 864.202942,501.046112 
	C877.034607,498.930359 886.788208,503.881744 892.736145,515.323059 
	C901.249573,531.699219 898.180054,554.075928 885.494934,567.472961 
	C879.629944,573.667175 872.175049,576.533020 863.863037,577.859924 
	C847.944458,580.401123 832.070496,583.221985 815.706360,586.007019 
	C815.706360,596.111816 815.705750,605.910095 815.706604,615.708374 
	C815.707214,623.204529 815.724548,630.700684 815.708435,638.196777 
	C815.670166,656.008484 807.410522,666.366760 789.870300,670.380798 
	C781.070862,672.394531 772.300842,672.014587 763.822632,668.836060 
	C752.595093,664.626770 746.089478,655.038025 746.063782,643.009521 
	C746.031433,627.877197 746.055969,612.744751 746.055969,597.067932 
	C734.777344,598.850769 723.990295,600.559509 713.201599,602.257385 
	C711.557983,602.515991 709.908203,602.737671 708.258118,602.952820 
	C689.161621,605.443298 678.271851,597.578796 675.301514,578.665344 
	C672.604309,561.491333 680.437988,539.773926 704.475525,535.774170 
	C717.102478,533.673096 729.473083,530.069275 742.036255,527.522827 
	C745.629028,526.794678 746.512146,525.325073 746.504395,521.915405 
	C746.459473,502.260345 746.633667,482.604797 746.715332,462.949371 
	C746.810791,439.956787 755.323853,429.744720 778.528442,425.295715 
z"></path>
<path fill="#193E7A" opacity="1.000000" stroke="none" d="
M622.299316,847.679993 
	C607.632080,828.970764 605.260010,807.833130 611.054077,786.264404 
	C623.333435,740.553772 651.226868,707.958557 696.300293,691.655396 
	C710.843933,686.394836 725.863708,686.855896 739.957581,694.337280 
	C747.118103,698.138245 751.278564,704.136353 751.028992,712.507935 
	C750.787231,720.615784 747.216370,726.919312 739.963318,730.818787 
	C735.118896,733.423401 729.627380,734.189209 725.125916,731.162170 
	C716.378723,725.280151 707.870544,726.966553 699.530701,730.987915 
	C679.271545,740.756653 665.250366,756.804443 656.697754,777.234619 
	C653.237976,785.499268 651.051453,794.811462 650.688660,803.744568 
	C650.053406,819.386169 661.027954,828.718628 676.282288,825.717102 
	C699.100647,821.227051 714.689819,806.918091 725.109558,786.564026 
	C725.308655,786.175049 725.243225,785.650635 725.397278,784.425842 
	C719.012207,786.213196 712.995605,787.952515 706.946350,789.569763 
	C703.416748,790.513428 699.871460,791.731384 696.269897,792.011047 
	C684.894043,792.894714 677.850525,783.167542 681.863770,772.473206 
	C683.899902,767.047546 687.519470,763.016724 692.852234,760.803406 
	C710.157410,753.620850 727.892395,747.937683 746.725464,746.566589 
	C762.801025,745.396362 771.777832,753.836731 771.106018,769.936340 
	C770.280273,789.723694 761.686218,806.574829 749.661682,821.702637 
	C731.424438,844.646545 708.354614,860.505005 679.095825,865.394531 
	C657.698242,868.970337 637.876587,865.125671 622.299316,847.679993 
z"></path>
<path fill="#193E7A" opacity="1.000000" stroke="none" d="
M926.785767,758.779297 
	C915.400940,791.848816 894.093140,814.886658 861.227539,826.455444 
	C848.900146,830.794678 836.060181,831.333313 823.265686,828.560181 
	C799.880981,823.491638 782.908325,804.617371 781.041870,780.080566 
	C778.329224,744.419067 792.928284,716.089539 819.881348,693.482971 
	C822.651306,691.159790 824.720215,687.917847 827.658630,685.891541 
	C848.984558,671.186035 872.061157,668.742615 895.465332,679.238037 
	C918.013428,689.349426 929.562195,708.031616 930.019226,732.738586 
	C930.177063,741.267517 928.002319,749.839539 926.785767,758.779297 
M825.665466,747.245178 
	C822.091675,756.714050 819.762512,766.358582 821.910706,776.543396 
	C824.444153,788.554260 834.773132,795.429260 846.552734,792.241028 
	C851.733398,790.838806 856.993469,788.470398 861.285950,785.285339 
	C873.588989,776.156433 881.925842,763.876465 885.181213,748.899902 
	C886.662415,742.085571 886.803467,734.622986 885.808167,727.705322 
	C884.004272,715.167419 873.507324,708.747742 860.917969,710.294617 
	C856.121643,710.883911 854.084351,714.459106 850.737549,716.584839 
	C839.240234,723.887573 831.383667,734.210022 825.665466,747.245178 
z"></path>
<path fill="#4AA55E" opacity="1.000000" stroke="none" d="
M910.101685,823.096191 
	C920.196777,822.446472 929.834900,821.813293 939.476257,821.233093 
	C941.468689,821.113159 943.638855,820.689453 945.436462,821.284119 
	C948.895264,822.428467 953.143188,823.375366 955.243652,825.911621 
	C958.197815,829.478760 955.967407,833.946899 953.512146,837.436890 
	C947.585754,845.861023 939.368896,851.160950 929.322388,852.972595 
	C911.310547,856.220703 893.190369,858.862915 875.153931,861.981079 
	C828.992004,869.961609 783.221741,879.636902 739.557251,897.107300 
	C721.954285,904.150391 704.925415,912.622192 687.583130,920.326233 
	C679.370056,923.974731 671.150879,927.671265 662.705261,930.708496 
	C658.416748,932.250732 653.622375,932.994568 649.052185,933.013367 
	C640.622559,933.048157 636.635925,925.196411 641.626709,918.351929 
	C644.116882,914.936829 647.528992,911.974365 651.041260,909.559265 
	C677.242981,891.542969 705.663513,877.702026 735.125793,866.004028 
	C782.036194,847.378479 830.595032,834.735718 880.448303,827.028992 
	C890.149841,825.529358 899.911804,824.420593 910.101685,823.096191 
z"></path>
<path fill="#4AA55E" opacity="1.000000" stroke="none" d="
M925.956665,426.964111 
	C929.893188,423.857910 933.393860,420.730927 937.263550,418.159180 
	C944.451294,413.382385 952.502625,414.633240 957.338440,420.923889 
	C962.041626,427.041809 961.162292,435.719849 954.635376,441.048920 
	C941.351257,451.895142 927.881592,462.519836 914.316711,473.013977 
	C908.245972,477.710480 900.957214,476.913239 896.321472,471.655121 
	C891.652161,466.358978 891.803345,458.414734 897.307434,453.172211 
	C906.592102,444.328735 916.209717,435.834869 925.956665,426.964111 
z"></path>
<path fill="#4AA55E" opacity="1.000000" stroke="none" d="
M881.599609,379.039673 
	C889.165161,383.792206 891.489075,390.146454 888.365906,398.028351 
	C883.399658,410.561127 878.285095,423.038422 873.010376,435.444427 
	C869.761719,443.085052 862.917908,446.413910 856.172241,444.102997 
	C849.101746,441.680786 845.529663,434.695312 848.308960,426.576752 
	C852.886292,413.205780 857.874023,399.957031 863.224426,386.875824 
	C866.499329,378.868835 872.691956,376.534210 881.599609,379.039673 
z"></path>
<path fill="#4AA55E" opacity="1.000000" stroke="none" d="
M959.445435,517.402954 
	C951.304871,518.732483 943.599915,520.116699 935.850769,521.178772 
	C928.002502,522.254395 922.684448,518.884705 921.337341,512.368164 
	C919.961914,505.714630 924.140320,499.285736 931.505371,497.479126 
	C941.361023,495.061554 951.269165,492.823608 961.222778,490.851288 
	C968.895325,489.330963 974.967346,493.207611 976.547668,500.062439 
	C978.071045,506.670013 974.076477,513.402283 967.154114,515.626587 
	C964.786682,516.387329 962.295959,516.764160 959.445435,517.402954 
z"></path>
<path fill="#F9F9F9" opacity="1.000000" stroke="none" d="
M561.204346,569.191650 
	C536.510559,584.731018 510.923218,597.763794 483.588348,610.024292 
	C485.012329,599.324585 486.179199,589.656067 487.606171,580.026001 
	C490.436768,560.923035 493.565338,541.863159 496.270752,522.743103 
	C498.048676,510.178070 494.573975,504.146362 482.256592,498.235321 
	C492.825714,493.408203 502.549927,488.575470 512.573303,484.473846 
	C531.159119,476.868378 550.354126,471.491760 570.565186,470.512451 
	C582.815613,469.918823 594.911743,470.731903 606.362061,475.573578 
	C623.108887,482.654846 628.494324,497.135040 620.611084,513.637085 
	C613.902771,527.679688 603.060669,538.307861 591.130798,547.753662 
	C581.615845,555.287476 571.409180,561.947754 561.204346,569.191650 
z"></path>
<path fill="#F9F9F9" opacity="1.000000" stroke="none" d="
M825.802612,746.886719 
	C831.383667,734.210022 839.240234,723.887573 850.737549,716.584839 
	C854.084351,714.459106 856.121643,710.883911 860.917969,710.294617 
	C873.507324,708.747742 884.004272,715.167419 885.808167,727.705322 
	C886.803467,734.622986 886.662415,742.085571 885.181213,748.899902 
	C881.925842,763.876465 873.588989,776.156433 861.285950,785.285339 
	C856.993469,788.470398 851.733398,790.838806 846.552734,792.241028 
	C834.773132,795.429260 824.444153,788.554260 821.910706,776.543396 
	C819.762512,766.358582 822.091675,756.714050 825.802612,746.886719 
z"></path>
</svg>